<svg width="100%" height="100%" viewBox="0 0 150 150" fill="none" xmlns="http://www.w3.org/2000/svg">
<path d="M102.974 92.5675C94.4832 92.5675 86.2962 92.5675 77.8059 92.5675C77.5027 92.5675 77.1995 92.5675 76.8963 92.2643C74.4705 91.6578 72.6511 89.8385 72.6511 87.1095C72.6511 79.2257 72.6511 71.3418 72.6511 63.458C72.6511 60.1226 75.0769 58 78.4124 58C85.993 58 93.8768 58 101.457 58C103.883 58 107.219 60.4258 107.219 63.7613C106.915 71.9483 107.219 80.1353 107.219 88.6256C106.915 88.3224 106.612 88.3224 106.309 88.0192C105.096 86.8063 103.883 85.5934 102.67 84.6837C101.761 84.0772 101.761 83.1676 101.761 82.2579C101.761 77.7095 101.761 73.1612 101.761 68.6128C101.761 68.3096 101.761 67.7032 101.761 67.3999C101.761 65.2774 100.244 63.7613 98.1219 63.7613C92.6639 63.7613 87.2059 63.7613 81.7478 63.7613C79.9285 63.7613 78.1092 65.2774 78.1092 67.0967C78.1092 72.858 78.1092 78.316 78.1092 84.0772C78.1092 85.8966 79.6253 87.1095 81.4446 87.4127C82.0511 87.4127 82.9607 87.4127 83.5672 87.4127C88.1155 87.4127 92.6639 87.4127 96.909 87.4127C97.8187 87.4127 98.1219 87.7159 98.7284 88.0192C100.244 89.5353 101.761 90.7482 102.974 92.2643C103.277 92.2643 103.277 92.5675 102.974 92.5675Z" fill="#E02731"/>
<path d="M36.5675 58.3032C38.6901 58.3032 40.5094 58.3032 42.632 58.3032C42.632 63.1548 42.632 67.7032 42.632 72.5548C48.6964 72.5548 54.4577 72.5548 60.5222 72.5548C60.5222 67.7032 60.5222 63.1548 60.5222 58C62.6447 58 64.4641 58 66.5866 58C66.5866 69.5225 66.5866 80.7418 66.5866 92.2643C64.7673 92.2643 62.6447 92.2643 60.5222 92.2643C60.5222 87.4127 60.5222 82.5612 60.5222 77.4063C54.4577 77.4063 48.6964 77.4063 42.632 77.4063C42.632 82.2579 42.632 87.1095 42.632 92.2643C40.5094 92.2643 38.6901 92.2643 36.5675 92.2643C36.5675 81.045 36.5675 69.8257 36.5675 58.3032Z" fill="#E02731"/>
<path d="M30.503 58.3032C29.2901 59.5161 27.774 60.729 26.5611 61.9419C25.3482 62.8516 24.4386 64.0645 23.2257 65.2774C22.0128 66.4903 21.1031 67.7031 19.8902 68.916C18.3741 70.4322 16.5547 72.2515 15.0386 73.7676C13.8257 74.9805 14.129 74.9805 15.0386 76.1934C20.1934 81.3482 25.3482 86.503 30.503 91.6578C30.8063 91.961 31.1095 92.2643 31.4127 92.5675C28.9869 92.5675 26.5611 92.5675 24.1353 92.5675C23.8321 92.5675 23.5289 92.2643 23.2257 91.961C20.4967 89.232 18.0709 86.503 15.3418 84.0772C13.8257 81.9547 11.7032 80.1353 9.88382 78.316C9.27737 77.7095 8.67092 77.1031 8.3677 76.7999C8.3677 76.7999 8.06448 76.7999 8.06448 77.1031C8.06448 82.2579 8.06448 87.4127 8.06448 92.5675C5.94191 92.5675 4.12257 92.5675 2 92.5675C2 81.045 2 69.8257 2 58.3032C4.12257 58.3032 5.94191 58.3032 8.06448 58.3032C8.06448 63.1548 8.06448 68.3096 8.06448 73.7676C8.97415 72.858 9.88382 72.5547 10.4903 71.9483C12.6128 69.8257 15.0386 67.7031 17.1612 65.2774C18.9805 63.1548 21.1031 61.3354 22.9224 59.2129C23.5289 58.6064 24.1353 58.3032 25.045 58.3032C26.5611 58 28.3805 58 30.503 58.3032Z" fill="#E02731"/>
<path d="M142.089 75.2838C141.786 72.5548 141.18 70.129 139.36 67.7032C136.328 64.0645 131.173 62.2451 126.625 63.7613C121.773 65.2774 118.438 69.8257 118.438 74.6773C118.438 80.1353 118.438 85.2902 118.438 90.7482C118.438 91.3546 118.438 91.6579 118.438 92.2643C115.709 92.5675 112.98 90.1417 112.98 87.4127C112.98 82.5611 112.98 77.7096 113.283 73.1612C113.89 65.8838 119.651 59.8193 126.928 58.6065C135.722 56.7871 145.122 62.5484 146.941 71.9483V72.2515C147.547 74.9805 147.244 75.587 144.515 75.587C143.606 75.2838 142.999 75.2838 142.089 75.2838Z" fill="#E02731"/>
<path d="M96.3026 81.6515C95.9994 81.6515 95.6962 81.6515 95.3929 81.6515C92.0575 81.6515 89.0252 81.6515 85.6898 81.6515C84.1737 81.6515 83.264 81.045 83.264 79.5289C83.264 76.7999 83.264 73.7677 83.264 71.0386C83.264 69.8257 83.8704 68.9161 85.3866 68.9161C88.4188 68.9161 91.1478 68.9161 94.18 68.9161C95.3929 68.9161 96.3026 69.5225 96.3026 70.7354C96.3026 74.3741 96.3026 78.0128 96.3026 81.6515Z" fill="#E02731"/>
<path d="M127.838 80.7417C130.264 80.7417 132.386 80.7417 134.509 80.7417C134.812 80.7417 135.115 80.7417 135.418 81.045C139.057 84.6836 142.696 88.6256 146.638 92.5675C144.515 92.5675 142.089 92.5675 139.664 92.5675C139.36 92.5675 139.057 92.2643 139.057 92.2643C135.722 88.3223 132.083 84.6836 127.838 80.7417Z" fill="#E02731"/>
</svg>
